PathFileType	4	(X/Y/Z)	RBDS015\RBDS015runT25.trc
DataRate	CameraRate	NumFrames	NumMarkers	Units	OrigDataRate	OrigDataStartFrame	OrigNumFrames
150.000000	150.000000	6	33	mm	150.000000	3375	4500
Frame#	Time	L.ASIS			L.Heel.Bottom			L.Heel.Lateral			L.Heel.Top			L.Iliac.Crest			L.MT1			L.MT5			L.PSIS			L.Shank.Bottom.Lateral			L.Shank.Bottom.Medial			L.Shank.Top.Lateral			L.Shank.Top.Medial			L.Thigh.Bottom.Lateral			L.Thigh.Bottom.Medial			L.Thigh.Top.Lateral			L.Thigh.Top.Medial			R.ASIS			R.ASY			R.Heel.Bottom			R.Heel.Lateral			R.Heel.Top			R.Iliac.Crest			R.MT1			R.MT5			R.PSIS			R.Shank.Bottom.Lateral			R.Shank.Bottom.Medial			R.Shank.Top.Lateral			R.Shank.Top.Medial			R.Thigh.Bottom.Lateral			R.Thigh.Bottom.Medial			R.Thigh.Top.Lateral			R.Thigh.Top.Medial			
		X1	Y1	Z1	X2	Y2	Z2	X3	Y3	Z3	X4	Y4	Z4	X5	Y5	Z5	X6	Y6	Z6	X7	Y7	Z7	X8	Y8	Z8	X9	Y9	Z9	X10	Y10	Z10	X11	Y11	Z11	X12	Y12	Z12	X13	Y13	Z13	X14	Y14	Z14	X15	Y15	Z15	X16	Y16	Z16	X17	Y17	Z17	X18	Y18	Z18	X19	Y19	Z19	X20	Y20	Z20	X21	Y21	Z21	X22	Y22	Z22	X23	Y23	Z23	X24	Y24	Z24	X25	Y25	Z25	X26	Y26	Z26	X27	Y27	Z27	X28	Y28	Z28	X29	Y29	Z29	X30	Y30	Z30	X31	Y31	Z31	X32	Y32	Z32	X33	Y33	Z33	

3376	22.5	2202.549034360417	1057.746906279841	915.0450757408729	1633.658051877385	174.7525421768409	979.4793721125485	1661.651056645123	169.790632077424	936.6678885200835	1666.184601190327	201.0628316573281	977.4370149973411	2153.898924976801	1148.080991070213	871.2718633008383	1800.124192908507	52.28752797563595	1014.525395824537	1763.581581800216	57.87799577318667	904.647309078612	2026.923845824189	1115.748816785883	977.7451594122331	1783.371942339447	265.8586290701335	912.235491132218	1746.638476743224	289.1404989661656	939.0936916912237	1822.896439475486	335.1858878208705	898.8583989102736	1786.398521042777	362.4984169438875	926.2142183335691	2035.911321844484	686.1350118947686	872.5162403125389	1975.678960591805	699.1120600986332	902.0363334378559	2052.8504772567	794.5355805450779	858.2028147695664	1990.332409902454	807.6931399270012	892.2542373318861	2200.865639699883	1058.256344922676	1138.15905491061	2268.267421904225	112.1860060487768	1095.167029716694	2081.5502850089	88.49187339752099	1061.893679741123	2105.662262403485	100.432202504726	1107.716122074522	2097.447087882575	132.6507432047178	1067.713688830656	2121.447009457732	1157.795253413348	1176.007070148419	2294.010840013976	68.79445319205249	1046.814542687233	2241.368675341346	56.62070856991378	1152.383514773325	2023.71175781958	1119.142516762004	1071.439135201417	2180.595907696421	232.4057107119561	1133.321651850104	2135.820515344689	245.8837074650618	1102.938769250795	2192.057163625528	311.6335342378346	1148.328274913169	2149.000342240571	323.6602217092935	1117.34108829807	2225.167702087883	719.0818193453958	1191.660890378434	2172.427078869697	692.6369693777807	1148.192681179148	2169.169267875732	812.5862603453658	1198.389103841592	2118.194316695947	787.4113359143463	1158.294335569791	
3377	22.50666666666667	2205.074651409559	1060.960827097231	916.1672543752081	1626.778158738583	185.7930963837776	976.1986644463389	1655.04172969826	179.0989213964444	933.6978806047877	1660.621454876952	210.4307046230423	974.2683503322089	2157.378666777944	1153.181944686676	872.0394373431092	1787.04475704246	55.30285883382443	1013.192179234157	1751.314877035533	61.56238149455361	903.3613570626122	2029.326086316886	1119.993828994717	977.6843192289144	1776.86702693651	272.0289734221755	909.8559065759127	1740.226588596559	295.1881979916571	936.9982520382449	1816.608712847789	341.2602450393683	897.0694804637825	1780.305378862565	368.467079209807	924.7995006103712	2032.808615489085	690.5871960464453	872.3730010964342	1972.903960573195	704.3956283834011	902.1697443383912	2051.376778597083	798.7212762484123	858.3757644952951	1989.202845144858	812.7677166836261	892.7143763288267	2202.35028828628	1061.629375369305	1139.025247903861	2291.27823034261	112.2435501922706	1095.31881183646	2106.492892435679	79.05578399212754	1060.191914866397	2129.571367221899	92.16360628386307	1106.21355545157	2119.993173709116	123.9824450952821	1066.198063077004	2123.398383170776	1162.220132923911	1176.473244908286	2319.891414580653	70.40713193823284	1047.011336282137	2266.91913981986	55.35322357134633	1152.104939149962	2025.87824795514	1123.361631386145	1071.604800613056	2196.695099574472	228.4713308456406	1132.218402073903	2151.805290603763	239.3745266089277	1101.05503217579	2203.667989942805	308.2256589307373	1146.969754561331	2160.492503001282	317.7994470428669	1115.284612557653	2222.228249550657	720.2365861116053	1189.890603687262	2169.501551800272	694.7021857658767	1146.050846199941	2167.194213146548	814.357014579654	1197.093977202263	2116.249405683516	790.131606289277	1156.505844365607	
3378	22.51333333333334	2207.566461226296	1063.874603343248	917.2322685279782	1620.334010695366	196.6811097967942	972.8515184894254	1648.804539079034	188.3593052738053	930.6645140893127	1655.371619097187	219.6557755576766	971.0695300436846	2160.655274069848	1157.810664468435	872.8602689350462	1774.269543087606	58.76892697095867	1011.713387454815	1739.414380404892	65.72639941232117	901.9304706288178	2031.675434314388	1123.912309045825	977.6357883591578	1770.791866824437	277.958469541739	907.4981599813943	1734.184053652906	301.0945086474896	934.7166115597274	1810.891587834927	347.002016349797	895.2865644410817	1774.719107508837	374.2135367501342	923.1856135399987	2030.1471550383	694.6669596176056	872.3197892126241	1970.563032710492	709.2544303467301	902.383777959784	2050.230559805352	802.5303850761975	858.6122421633833	1988.399454476242	817.4112044017686	893.2339569120949	2203.848274623556	1064.556911652721	1139.807511637221	2313.782711682537	113.0784741191108	1095.519141364364	2131.274821384246	70.89372130997101	1058.690153678506	2153.367816154278	84.99592992340301	1104.903227991364	2142.435910462357	116.414233260138	1064.927404964505	2125.381809999027	1166.230341047669	1176.951778375473	2345.014392056605	72.94767072905967	1047.220696591425	2291.988900301046	54.93983725801426	1151.841016463027	2028.001858233798	1127.216648602626	1071.796011454202	2212.629711552805	225.17810002117	1131.248118231857	2167.781240489576	233.5356278562518	1099.334118449339	2215.180398111271	305.210192564329	1145.705094225185	2172.019280089802	312.3629977761046	1113.367676149187	2219.102229577723	720.8825972966158	1188.179054436776	2166.416777214787	696.2987849959574	1143.951315724233	2165.094393446119	815.653688481557	1195.884699402386	2114.175480860039	792.3993320280321	1154.830580784812	
3379	22.52	2209.992963417459	1066.453397232309	918.2425499342808	1614.235685465587	207.3519996685609	969.5596887464652	1642.821869520052	197.5350651901184	927.659298287982	1650.337074956055	228.7014332889369	967.9338948407894	2163.727300958902	1161.916705105916	873.7234656371152	1761.844932868228	62.64145414653471	1010.040924866971	1727.860493515956	70.36198342712525	900.3238228327446	2033.948968445199	1127.458570216085	977.6012782024736	1765.087577093737	283.6483550260056	905.193751072219	1728.472202695241	306.8791477722686	932.2900591271484	1805.707717473714	352.4017583755742	893.5221995782919	1769.618950925451	379.7448982214776	921.3909514571935	2027.985201901743	698.312122232706	872.3487970144706	1968.696397244689	713.6285123495637	902.639465039211	2049.472536048023	805.9073621904402	858.898258196567	1987.960125821364	821.5672690990073	893.7591069823167	2205.353327617223	1067.021359705748	1140.489379797203	2335.559975172269	114.6422458613605	1095.73135079288	2155.590637316517	64.01603098196776	1057.373650270456	2176.766913751607	78.92984368478656	1103.773497183129	2164.490193627375	109.9638684054246	1063.900608099382	2127.392736098827	1169.79084628518	1177.447875045609	2369.124824245941	76.35604629691373	1047.384136529915	2316.34545682097	55.30725636891045	1151.533388773704	2030.048962658325	1130.663914481255	1072.013496337552	2228.224487489144	222.5413043160088	1130.40455689882	2183.549105014786	228.4136030713338	1097.784576154655	2226.471942607627	302.61810944543	1144.535662382261	2183.439446969363	307.4124184311676	1111.603742048832	2215.920238220814	721.0593593998798	1186.601838250783	2163.317978293524	697.449203357148	1141.945325988573	2162.960209202463	816.4907103410271	1194.806845868533	2112.084068198391	794.2035238965942	1153.29725489152	
3380	22.52666666666667	2212.32674627141	1068.663733560801	919.2046301290551	1608.39371012878	217.7471035271952	966.4467777330034	1636.976411605991	206.5977883656942	924.7747607132845	1645.425234348894	237.5367271782542	964.9568276961552	2166.596545144702	1165.458575564324	874.6149549264084	1749.826797440292	66.8645525352252	1008.11883440438	1716.633356155531	75.45508779886572	898.5065582003458	2036.123833635677	1130.58738670629	977.5878581071991	1759.691710350636	289.1145415122307	902.9698315992454	1723.057176581363	312.5698799233257	929.7755023952851	1801.008259638531	357.468310201249	891.7863853579269	1764.984005367641	385.0785983839452	919.4527056259968	2026.389275345275	701.4560438803658	872.4430070999083	1967.351153215932	717.4494142798948	902.886856618557	2049.16615257248	808.792352274735	859.2132302510544	1987.923531544393	825.171734778685	894.2270989715354	2206.856005170728	1069.015477316176	1141.06571722413	2356.370948070422	116.8393149131516	1095.922495369344	2179.110537258521	58.37321357815164	1056.231001313409	2199.457988964989	73.91357611304639	1102.814489171382	2185.846013329385	104.5958379062904	1063.115331756041	2129.421484486259	1172.86558091093	1177.971022195105	2391.960107508822	80.51836113787782	1047.448078241116	2339.736566427038	56.33622586921719	1151.130726281666	2031.98955985682	1133.660414566008	1072.260120272018	2243.281689869311	220.5385681858808	1129.681958157478	2198.88246185161	224.0191918495842	1096.412918447735	2237.398317221376	300.4526368019255	1143.463595408516	2194.587643260038	302.9823055471714	1110.002083463702	2212.822829506199	720.8190619190475	1185.219301799394	2160.352461617025	698.1841375219449	1140.080650939512	2160.890460806439	816.894757310995	1193.89244139206	2110.090484184384	795.5451680543672	1151.926717150645	
3381	22.53333333333333	2214.545929239364	1070.474767050704	920.1270631801148	1602.724976216833	227.8170968721077	963.6233159931274	1631.161278645046	215.5284293365305	922.0932449058736	1640.554564160194	246.1380552386907	962.2243430140478	2169.264122864678	1168.403497197969	875.5181953108038	1738.274852408479	71.37837529178033	1005.890098568649	1705.717913448413	80.98813591447859	896.4438644357122	2038.178015631395	1133.254556642891	977.6059573043118	1754.541993027289	294.3852568034524	900.8476769098542	1717.910930675939	318.1990276035524	927.2409010094564	1796.73560000827	362.226407800381	890.0870321402584	1760.793183861479	390.2389140919694	917.4243562387961	2025.425847610984	704.0297484097593	872.5790852854595	1966.57446193254	720.642129955172	903.0711667238903	2049.36885744249	811.1236255289958	859.5330202372712	1988.322533569017	828.1550235411157	894.5739856805828	2208.343779140024	1070.540411565057	1141.543665708513	2375.967972514208	119.5235710365587	1096.063194873435	2201.490048820458	53.85848761688892	1055.251693953169	2221.113048149245	69.84576184608302	1102.015524679874	2206.179909135559	100.2231519445355	1062.563766263113	2131.44939707994	1175.418150668314	1178.533664361495	2413.260526893781	85.25864426399369	1047.368643501362	2361.894482460567	57.86202418475619	1150.593700724572	2033.799507100548	1136.164121711623	1072.53931320695	2257.588836822544	219.1062433914279	1129.073895021826	2213.538184666208	220.3227987280727	1095.220799353933	2247.800208292327	298.685034144673	1142.490811977022	2205.282767773695	299.0753071362342	1108.565660867411	2209.950160464671	720.2218324312329	1184.067048659121	2157.65630040382	698.5380618188298	1138.396952836335	2158.985791423138	816.9020787094177	1193.155471828487	2108.303282095424	796.4359324860977	1150.73101810911	
